<svg xmlns="http://www.w3.org/2000/svg" version="1.1" xmlns:xlink="http://www.w3.org/1999/xlink" xmlns:svgjs="http://svgjs.com/svgjs" width="512" height="512" x="0" y="0" viewBox="0 0 512 512" style="enable-background:new 0 0 512 512" xml:space="preserve" class=""><g><path d="M256 0c-77.534 0-140.387 62.853-140.387 140.387v63.312c0 110.796 68.8 167.434 68.8 167.434h211.974V140.387C396.387 62.853 333.534 0 256 0z" style="" fill="#ffd164" data-original="#ffd164" class=""></path><path d="M115.613 140.387v63.312c0 110.796 68.8 167.434 68.8 167.434H256V0c-77.534 0-140.387 62.853-140.387 140.387z" style="" fill="#ffc350" data-original="#ffc350" class=""></path><path d="m412.878 401.236-85.291-30.103a33.032 33.032 0 0 1-22.039-31.149v-50.952H206.45v50.952a33.033 33.033 0 0 1-22.038 31.149l-85.291 30.103c-19.81 6.992-33.057 25.716-33.057 46.723v39.267c0 13.682 11.092 24.774 24.774 24.774h330.323c13.682 0 24.774-11.092 24.774-24.774v-39.267c0-21.007-13.247-39.731-33.057-46.723z" style="" fill="#f7d291" data-original="#f7d291" class=""></path><path d="m412.878 401.236-70.977-25.051c-12.214 35.749-46.015 61.492-85.901 61.492s-73.686-25.744-85.9-61.492l-70.978 25.051c-19.81 6.991-33.057 25.716-33.057 46.723v39.267c0 13.682 11.092 24.774 24.774 24.774h330.323c13.682 0 24.774-11.092 24.774-24.774v-39.267c-.001-21.007-13.248-39.732-33.058-46.723z" style="" fill="#a5cdff" data-original="#a5cdff"></path><path d="M256 470.71c54.272 0 100.276-34.958 117.023-83.54l-31.122-10.984c-12.214 35.749-46.015 61.492-85.901 61.492s-73.686-25.744-85.9-61.492l-31.122 10.984c16.746 48.582 62.75 83.54 117.022 83.54z" style="" fill="#edebed" data-original="#edebed"></path><path d="M125.968 454.552 79.2 414.467c-3.786 4.119-6.793 8.871-9.006 14.029l45.031 38.597a24.75 24.75 0 0 1 8.645 18.81V512h16.516v-26.097a41.239 41.239 0 0 0-14.418-31.351z" style="" fill="#8cb4eb" data-original="#8cb4eb"></path><path d="M206.452 319.758c13.436 5.983 28.091 9.695 43.582 10.424 1.998.094 3.989.141 5.967.141 17.619 0 34.359-3.755 49.548-10.415v-30.876h-99.097v30.726z" style="" fill="#f0c382" data-original="#f0c382" class=""></path><path d="M366.306 173.419c-10.752 0-19.468-8.716-19.468-19.468v-13.565c0-22.804-18.486-41.29-41.29-41.29h-99.097c-22.804 0-41.29 18.486-41.29 41.29v13.565c0 10.752-8.716 19.468-19.468 19.468-10.799 0-20.64 7.77-21.716 18.515-1.238 12.358 8.434 22.775 20.538 22.775h4.546c4.23 55.419 50.435 99.097 106.938 99.097s102.708-43.678 106.938-99.097h4.546c12.105 0 21.776-10.417 20.538-22.775-1.075-10.745-10.916-18.515-21.715-18.515z" style="" fill="#ffe1a0" data-original="#ffe1a0"></path><path d="M206.464 127.408c8.093-1.156 16.369 1.09 22.555 6.433 40.911 35.335 93.885 56.094 150.852 56.094 2.462 0 5.04-.066 7.705-.168-2.121-9.664-11.37-16.456-21.51-16.347-10.663.114-19.228-8.805-19.228-19.469v-13.565c0-22.804-18.486-41.29-41.29-41.29h-99.097c-9.328 0-17.862 3.183-24.774 8.4v.045c-9.974 7.537-16.516 19.381-16.516 32.845v14.409c0 10.709-8.982 18.518-19.69 18.624-10.711.106-20.424 7.842-21.493 18.514-1.237 12.358 8.433 22.775 20.538 22.775h4.546c4.23 55.419 50.435 99.097 106.938 99.097 5.649 0 11.157-.55 16.568-1.392-51.454-7.941-90.891-52.286-90.891-105.963v-50.465c0-14.365 10.564-26.545 24.787-28.577z" style="" fill="#f7d291" data-original="#f7d291" class=""></path><path d="M206.452 198.194a8.256 8.256 0 0 1-8.258-8.258v-8.258c0-4.56 3.694-8.258 8.258-8.258s8.258 3.698 8.258 8.258v8.258a8.256 8.256 0 0 1-8.258 8.258zM305.548 198.194a8.256 8.256 0 0 1-8.258-8.258v-8.258a8.256 8.256 0 0 1 8.258-8.258 8.256 8.256 0 0 1 8.258 8.258v8.258a8.256 8.256 0 0 1-8.258 8.258z" style="" fill="#6e5a64" data-original="#6e5a64"></path><path d="M256 256c-12.387 0-23.823-3.976-30.573-10.637-3.25-3.202-3.282-8.431-.081-11.677 3.202-3.25 8.444-3.282 11.677-.081 2.75 2.714 9.371 5.879 18.976 5.879s16.226-3.165 18.976-5.879c3.234-3.202 8.476-3.169 11.677.081 3.202 3.246 3.169 8.476-.081 11.677C279.823 252.024 268.387 256 256 256z" style="" fill="#e3aa75" data-original="#e3aa75"></path><path d="m386.032 454.552 46.768-40.086c3.786 4.119 6.793 8.871 9.006 14.029l-45.031 38.597a24.75 24.75 0 0 0-8.645 18.81V512h-16.516v-26.097a41.239 41.239 0 0 1 14.418-31.351z" style="" fill="#8cb4eb" data-original="#8cb4eb"></path><path d="M189.935 165.165a8.259 8.259 0 0 1-7.831-5.649 8.26 8.26 0 0 1 5.218-10.448l24.774-8.258c4.363-1.456 9 .895 10.444 5.222s-.895 9.004-5.218 10.448l-24.774 8.258c-.871.29-1.75.427-2.613.427z" style="" fill="#e3aa75" data-original="#e3aa75"></path><path d="M256 0c-29.867 0-57.503 9.397-80.259 25.297 28.029 85.974 108.801 148.122 204.13 148.122 5.564 0 11.059-.279 16.516-.695v-32.338C396.387 62.853 333.534 0 256 0z" style="" fill="#ffe17d" data-original="#ffe17d"></path><path d="M305.548 313.806v33.032c0 72.919 57.806 99.097 57.806 165.161h33.032V313.806h-90.838z" style="" fill="#ffd164" data-original="#ffd164" class=""></path></g></svg>