<svg xmlns="http://www.w3.org/2000/svg" version="1.1" xmlns:xlink="http://www.w3.org/1999/xlink" xmlns:svgjs="http://svgjs.com/svgjs" width="512" height="512" x="0" y="0" viewBox="0 0 128 128" style="enable-background:new 0 0 512 512" xml:space="preserve" class=""><g><linearGradient id="a"><stop offset="0" stop-color="#f9ddd1"></stop><stop offset=".514" stop-color="#f8dbce"></stop><stop offset=".822" stop-color="#f6d3c6"></stop><stop offset="1" stop-color="#f4cabd"></stop></linearGradient><linearGradient xlink:href="#a" id="f" x1="30" x2="42" y1="46" y2="46" gradientUnits="userSpaceOnUse"></linearGradient><linearGradient xlink:href="#a" id="g" x1="98" x2="86" y1="46" y2="46" gradientUnits="userSpaceOnUse"></linearGradient><linearGradient id="b"><stop offset="0" stop-color="#f7d0bf"></stop><stop offset="1" stop-color="#f1beae"></stop></linearGradient><linearGradient xlink:href="#b" id="h" x1="-154.384" x2="-147.506" y1="281.536" y2="281.536" gradientTransform="rotate(-15.42 -926.188 -533.33)" gradientUnits="userSpaceOnUse"></linearGradient><linearGradient xlink:href="#b" id="i" x1="-1960.717" x2="-1953.839" y1="-217.499" y2="-217.499" gradientTransform="scale(-1 1) rotate(-15.43 -53.148 -6979.09)" gradientUnits="userSpaceOnUse"></linearGradient><linearGradient xlink:href="#a" id="j" x1="53.75" x2="74.25" y1="69.25" y2="89.75" gradientUnits="userSpaceOnUse"></linearGradient><linearGradient id="k" x1="57.671" x2="78.098" y1="65.66" y2="85.455" gradientUnits="userSpaceOnUse"><stop offset="0" stop-color="#eeae9a"></stop><stop offset=".316" stop-color="#efb4a0"></stop><stop offset=".738" stop-color="#f4c3b1"></stop><stop offset="1" stop-color="#f7d0bf"></stop></linearGradient><linearGradient xlink:href="#a" id="l" x1="41.638" x2="86.363" y1="19.638" y2="64.363" gradientUnits="userSpaceOnUse"></linearGradient><linearGradient id="c"><stop offset="0" stop-color="#f1f2f2"></stop><stop offset="1" stop-color="#e6e7e8"></stop></linearGradient><linearGradient xlink:href="#c" id="m" x1="64" x2="64" y1="86" y2="126" gradientUnits="userSpaceOnUse"></linearGradient><linearGradient id="n" x1="64" x2="64" y1="44" y2="58" gradientUnits="userSpaceOnUse"><stop offset="0" stop-color="#f7d0bf"></stop><stop offset="1" stop-color="#eeae9a"></stop></linearGradient><linearGradient id="d"><stop offset="0" stop-color="#6c6f73"></stop><stop offset="1" stop-color="#56585b"></stop></linearGradient><linearGradient xlink:href="#d" id="o" x1="64" x2="64" y1="99.215" y2="132.01" gradientUnits="userSpaceOnUse"></linearGradient><linearGradient xlink:href="#d" id="p" x1="64" x2="64" y1="98.414" y2="89.329" gradientUnits="userSpaceOnUse"></linearGradient><linearGradient xlink:href="#c" id="q" x1="54" x2="54" y1="77.735" y2="104.211" gradientUnits="userSpaceOnUse"></linearGradient><linearGradient xlink:href="#c" id="r" x1="74" x2="74" y1="72.572" y2="100.931" gradientUnits="userSpaceOnUse"></linearGradient><linearGradient id="e"><stop offset="0" stop-color="#ac766a"></stop><stop offset="1" stop-color="#93634d"></stop></linearGradient><linearGradient xlink:href="#e" id="s" x1="33.586" x2="40.561" y1="37.379" y2="35.275" gradientUnits="userSpaceOnUse"></linearGradient><linearGradient xlink:href="#e" id="t" x1="26" x2="94.001" y1="23.5" y2="23.5" gradientUnits="userSpaceOnUse"></linearGradient><path fill="url(#f)" d="M41.546 44.443c1.262 4.333-.199 8.543-3.262 9.402-3.063.86-6.569-1.956-7.831-6.289s.199-8.543 3.262-9.402c3.064-.859 6.57 1.956 7.831 6.289z" data-original="url(#f)"></path><path fill="url(#g)" d="M86.454 44.443c-1.262 4.333.199 8.543 3.262 9.402 3.063.86 6.569-1.956 7.831-6.289s-.199-8.543-3.262-9.402c-3.064-.859-6.57 1.956-7.831 6.289z" data-original="url(#g)"></path><path fill="url(#h)" d="M41.321 45.105c.609 2.153-.383 4.298-2.217 4.793-1.834.494-3.815-.85-4.424-3.002-.609-2.153.383-4.298 2.217-4.793s3.814.849 4.424 3.002z" data-original="url(#h)"></path><path fill="url(#i)" d="M86.679 45.105c-.609 2.153.383 4.298 2.217 4.793 1.834.494 3.815-.85 4.424-3.002.609-2.153-.383-4.298-2.217-4.793s-3.814.849-4.424 3.002z" data-original="url(#i)"></path><path fill="url(#j)" d="M75 89H53l1-20h20z" data-original="url(#j)"></path><path fill="url(#k)" d="M74 69H54l-.244 4.882L68.874 89H75z" data-original="url(#k)"></path><path fill="url(#l)" d="M64 76c-14.3 0-26-11.7-26-26V34C38 19.7 49.7 8 64 8s26 11.7 26 26v16c0 14.3-11.7 26-26 26z" data-original="url(#l)" class=""></path><path fill="url(#m)" d="M77.889 86H50.111C31.35 86 16 101.3 16 120v6h96v-6c0-18.7-15.35-34-34.111-34z" data-original="url(#m)"></path><path fill="#51251f" d="M54.263 46h-.527A1.741 1.741 0 0 1 52 44.263v-2.527c0-.955.781-1.736 1.737-1.736h.527c.955 0 1.736.781 1.736 1.737v2.527c0 .955-.781 1.736-1.737 1.736zM74.263 46h-.527A1.741 1.741 0 0 1 72 44.263v-2.527c0-.955.781-1.736 1.737-1.736h.527c.955 0 1.736.781 1.736 1.737v2.527c0 .955-.781 1.736-1.737 1.736z" data-original="#51251f"></path><path fill="url(#n)" d="M64.158 58h-.316A2.85 2.85 0 0 1 61 55.158v-8.316A2.85 2.85 0 0 1 63.842 44h.316A2.85 2.85 0 0 1 67 46.842v8.316A2.85 2.85 0 0 1 64.158 58z" data-original="url(#n)"></path><path fill="#7a5954" d="M51 37a1.001 1.001 0 0 1-.018-2l6-.105c.568.021 1.008.431 1.018.982s-.43 1.008-.982 1.018l-6 .105H51zM77 37h-.018l-6-.105a1 1 0 0 1 .018-2h.018l6 .105A1 1 0 0 1 77 37z" data-original="#7a5954"></path><path fill="#f09890" d="M62.028 64.247c-2.517 0-4.607-.162-5.112-.205a1 1 0 0 1-.913-1.08.988.988 0 0 1 1.081-.912c4.42.372 12.092.347 13.855-1.297a1 1 0 1 1 1.365 1.463c-1.79 1.668-6.511 2.031-10.276 2.031z" data-original="#f09890" class=""></path><path fill="url(#o)" d="M67 99h-6l-2 27h10z" data-original="url(#o)"></path><path fill="url(#p)" d="M66 89h-4s-4.012 5.976-4 6l3 4h6l3-4c-.022-.076-4-6-4-6z" data-original="url(#p)"></path><path fill="url(#q)" d="m53 79 11 7-10 15-10-15z" data-original="url(#q)"></path><path fill="url(#r)" d="m75 79-11 7 10 15 10-15z" data-original="url(#r)"></path><g fill="#d1d3d4"><path d="M31 126h-2v-11a1 1 0 0 1 2 0zM99 126h-2v-11a1 1 0 0 1 2 0zM90 115H78a1 1 0 0 1 0-2h12a1 1 0 0 1 0 2z" fill="#d1d3d4" data-original="#d1d3d4"></path></g><path fill="url(#s)" d="m42 30-4 15s-3-8.521-3-17z" data-original="url(#s)"></path><path fill="url(#t)" d="m87 33-7 2 1-7-11 5 1-5s-8.542 5-17 5c-7.719 0-28-7-28-7l10-10-6-2S44.083 3.453 61 4c4.676.151 11.318.711 16 3l-1-5s18.145 7 18 26c-.023 3.02-.932 6.354-2 10l-2 7z" data-original="url(#t)"></path></g></svg>